<svg xmlns="http://www.w3.org/2000/svg" viewBox="0 0 1200 720" role="img" aria-labelledby="title desc"><title id="title">竞技场信号</title><desc id="desc">抽象的竞技场看台与灯光，不代表具体比赛现场。</desc><defs><linearGradient id="sky" x2="0" y2="1"><stop stop-color="#162a4c"/><stop offset="1" stop-color="#42647b"/></linearGradient></defs><path fill="url(#sky)" d="M0 0h1200v720H0z"/><g fill="none" stroke="#d0b984" stroke-width="3" opacity=".65"><ellipse cx="600" cy="610" rx="500" ry="170"/><ellipse cx="600" cy="590" rx="450" ry="140"/><ellipse cx="600" cy="570" rx="400" ry="110"/></g><path d="M200 450 350 90 500 450M700 450 850 90 1000 450" fill="#d5e4e5" opacity=".12"/><circle cx="600" cy="260" r="85" fill="none" stroke="#e5ce98" stroke-width="2"/><path d="m600 197 16 47 50 1-40 30 14 47-40-29-40 29 14-47-40-30 50-1Z" fill="#e5ce98"/><g fill="#e3c394"><circle cx="160" cy="530" r="4"/><circle cx="1040" cy="530" r="4"/><circle cx="290" cy="630" r="4"/><circle cx="910" cy="630" r="4"/></g></svg>
